<svg xmlns="http://www.w3.org/2000/svg"><symbol id="i-arrow-clockwise" viewBox="0 0 256 256"><path d="M240,56v48a8,8,0,0,1-8,8H184a8,8,0,0,1,0-16H211.4L184.81,71.64l-.25-.24a80,80,0,1,0-1.67,114.78,8,8,0,0,1,11,11.63A95.44,95.44,0,0,1,128,224h-1.32A96,96,0,1,1,195.75,60L224,85.8V56a8,8,0,1,1,16,0Z"/></symbol><symbol id="i-arrow-right" viewBox="0 0 256 256"><path d="M221.66,133.66l-72,72a8,8,0,0,1-11.32-11.32L196.69,136H40a8,8,0,0,1,0-16H196.69L138.34,61.66a8,8,0,0,1,11.32-11.32l72,72A8,8,0,0,1,221.66,133.66Z"/></symbol><symbol id="i-arrow-up-right" viewBox="0 0 256 256"><path d="M200,64V168a8,8,0,0,1-16,0V83.31L69.66,197.66a8,8,0,0,1-11.32-11.32L172.69,72H88a8,8,0,0,1,0-16H192A8,8,0,0,1,200,64Z"/></symbol><symbol id="i-browser" viewBox="0 0 256 256"><path d="M216,40H40A16,16,0,0,0,24,56V200a16,16,0,0,0,16,16H216a16,16,0,0,0,16-16V56A16,16,0,0,0,216,40Zm0,16V88H40V56Zm0,144H40V104H216v96Z"/></symbol><symbol id="i-chart-line-up" viewBox="0 0 256 256"><path d="M232,208a8,8,0,0,1-8,8H32a8,8,0,0,1-8-8V48a8,8,0,0,1,16,0V156.69l50.34-50.35a8,8,0,0,1,11.32,0L128,132.69,180.69,80H160a8,8,0,0,1,0-16h40a8,8,0,0,1,8,8v40a8,8,0,0,1-16,0V91.31l-58.34,58.35a8,8,0,0,1-11.32,0L96,123.31l-56,56V200H224A8,8,0,0,1,232,208Z"/></symbol><symbol id="i-check" viewBox="0 0 256 256"><path d="M229.66,77.66l-128,128a8,8,0,0,1-11.32,0l-56-56a8,8,0,0,1,11.32-11.32L96,188.69,218.34,66.34a8,8,0,0,1,11.32,11.32Z"/></symbol><symbol id="i-database" viewBox="0 0 256 256"><path d="M128,24C74.17,24,32,48.6,32,80v96c0,31.4,42.17,56,96,56s96-24.6,96-56V80C224,48.6,181.83,24,128,24Zm80,104c0,9.62-7.88,19.43-21.61,26.92C170.93,163.35,150.19,168,128,168s-42.93-4.65-58.39-13.08C55.88,147.43,48,137.62,48,128V111.36c17.06,15,46.23,24.64,80,24.64s62.94-9.68,80-24.64ZM69.61,53.08C85.07,44.65,105.81,40,128,40s42.93,4.65,58.39,13.08C200.12,60.57,208,70.38,208,80s-7.88,19.43-21.61,26.92C170.93,115.35,150.19,120,128,120s-42.93-4.65-58.39-13.08C55.88,99.43,48,89.62,48,80S55.88,60.57,69.61,53.08ZM186.39,202.92C170.93,211.35,150.19,216,128,216s-42.93-4.65-58.39-13.08C55.88,195.43,48,185.62,48,176V159.36c17.06,15,46.23,24.64,80,24.64s62.94-9.68,80-24.64V176C208,185.62,200.12,195.43,186.39,202.92Z"/></symbol><symbol id="i-envelope-simple" viewBox="0 0 256 256"><path d="M224,48H32a8,8,0,0,0-8,8V192a16,16,0,0,0,16,16H216a16,16,0,0,0,16-16V56A8,8,0,0,0,224,48ZM203.43,64,128,133.15,52.57,64ZM216,192H40V74.19l82.59,75.71a8,8,0,0,0,10.82,0L216,74.19V192Z"/></symbol><symbol id="i-files" viewBox="0 0 256 256"><path d="M213.66,66.34l-40-40A8,8,0,0,0,168,24H88A16,16,0,0,0,72,40V56H56A16,16,0,0,0,40,72V216a16,16,0,0,0,16,16H168a16,16,0,0,0,16-16V200h16a16,16,0,0,0,16-16V72A8,8,0,0,0,213.66,66.34ZM168,216H56V72h76.69L168,107.31v84.53c0,.06,0,.11,0,.16s0,.1,0,.16V216Zm32-32H184V104a8,8,0,0,0-2.34-5.66l-40-40A8,8,0,0,0,136,56H88V40h76.69L200,75.31Zm-56-32a8,8,0,0,1-8,8H88a8,8,0,0,1,0-16h48A8,8,0,0,1,144,152Zm0,32a8,8,0,0,1-8,8H88a8,8,0,0,1,0-16h48A8,8,0,0,1,144,184Z"/></symbol><symbol id="i-github-logo" viewBox="0 0 256 256"><path d="M208.31,75.68A59.78,59.78,0,0,0,202.93,28,8,8,0,0,0,196,24a59.75,59.75,0,0,0-48,24H124A59.75,59.75,0,0,0,76,24a8,8,0,0,0-6.93,4,59.78,59.78,0,0,0-5.38,47.68A58.14,58.14,0,0,0,56,104v8a56.06,56.06,0,0,0,48.44,55.47A39.8,39.8,0,0,0,96,192v8H72a24,24,0,0,1-24-24A40,40,0,0,0,8,136a8,8,0,0,0,0,16,24,24,0,0,1,24,24,40,40,0,0,0,40,40H96v16a8,8,0,0,0,16,0V192a24,24,0,0,1,48,0v40a8,8,0,0,0,16,0V192a39.8,39.8,0,0,0-8.44-24.53A56.06,56.06,0,0,0,216,112v-8A58.14,58.14,0,0,0,208.31,75.68ZM200,112a40,40,0,0,1-40,40H112a40,40,0,0,1-40-40v-8a41.74,41.74,0,0,1,6.9-22.48A8,8,0,0,0,80,73.83a43.81,43.81,0,0,1,.79-33.58,43.88,43.88,0,0,1,32.32,20.06A8,8,0,0,0,119.82,64h32.35a8,8,0,0,0,6.74-3.69,43.87,43.87,0,0,1,32.32-20.06A43.81,43.81,0,0,1,192,73.83a8.09,8.09,0,0,0,1,7.65A41.72,41.72,0,0,1,200,104Z"/></symbol><symbol id="i-lightning" viewBox="0 0 256 256"><path d="M215.79,118.17a8,8,0,0,0-5-5.66L153.18,90.9l14.66-73.33a8,8,0,0,0-13.69-7l-112,120a8,8,0,0,0,3,13l57.63,21.61L88.16,238.43a8,8,0,0,0,13.69,7l112-120A8,8,0,0,0,215.79,118.17ZM109.37,214l10.47-52.38a8,8,0,0,0-5-9.06L62,132.71l84.62-90.66L136.16,94.43a8,8,0,0,0,5,9.06l52.8,19.8Z"/></symbol><symbol id="i-list" viewBox="0 0 256 256"><path d="M224,128a8,8,0,0,1-8,8H40a8,8,0,0,1,0-16H216A8,8,0,0,1,224,128ZM40,72H216a8,8,0,0,0,0-16H40a8,8,0,0,0,0,16ZM216,184H40a8,8,0,0,0,0,16H216a8,8,0,0,0,0-16Z"/></symbol><symbol id="i-package" viewBox="0 0 256 256"><path d="M223.68,66.15,135.68,18a15.88,15.88,0,0,0-15.36,0l-88,48.17a16,16,0,0,0-8.32,14v95.64a16,16,0,0,0,8.32,14l88,48.17a15.88,15.88,0,0,0,15.36,0l88-48.17a16,16,0,0,0,8.32-14V80.18A16,16,0,0,0,223.68,66.15ZM128,32l80.34,44-29.77,16.3-80.35-44ZM128,120,47.66,76l33.9-18.56,80.34,44ZM40,90l80,43.78v85.79L40,175.82Zm176,85.78h0l-80,43.79V133.82l32-17.51V152a8,8,0,0,0,16,0V107.55L216,90v85.77Z"/></symbol><symbol id="i-play" viewBox="0 0 256 256"><path d="M232.4,114.49,88.32,26.35a16,16,0,0,0-16.2-.3A15.86,15.86,0,0,0,64,39.87V216.13A15.94,15.94,0,0,0,80,232a16.07,16.07,0,0,0,8.36-2.35L232.4,141.51a15.81,15.81,0,0,0,0-27ZM80,215.94V40l143.83,88Z"/></symbol><symbol id="i-receipt" viewBox="0 0 256 256"><path d="M72,104a8,8,0,0,1,8-8h96a8,8,0,0,1,0,16H80A8,8,0,0,1,72,104Zm8,40h96a8,8,0,0,0,0-16H80a8,8,0,0,0,0,16ZM232,56V208a8,8,0,0,1-11.58,7.15L192,200.94l-28.42,14.21a8,8,0,0,1-7.16,0L128,200.94,99.58,215.15a8,8,0,0,1-7.16,0L64,200.94,35.58,215.15A8,8,0,0,1,24,208V56A16,16,0,0,1,40,40H216A16,16,0,0,1,232,56Zm-16,0H40V195.06l20.42-10.22a8,8,0,0,1,7.16,0L96,199.06l28.42-14.22a8,8,0,0,1,7.16,0L160,199.06l28.42-14.22a8,8,0,0,1,7.16,0L216,195.06Z"/></symbol><symbol id="i-robot" viewBox="0 0 256 256"><path d="M200,48H136V16a8,8,0,0,0-16,0V48H56A32,32,0,0,0,24,80V192a32,32,0,0,0,32,32H200a32,32,0,0,0,32-32V80A32,32,0,0,0,200,48Zm16,144a16,16,0,0,1-16,16H56a16,16,0,0,1-16-16V80A16,16,0,0,1,56,64H200a16,16,0,0,1,16,16Zm-52-56H92a28,28,0,0,0,0,56h72a28,28,0,0,0,0-56Zm-24,16v24H116V152ZM80,164a12,12,0,0,1,12-12h8v24H92A12,12,0,0,1,80,164Zm84,12h-8V152h8a12,12,0,0,1,0,24ZM72,108a12,12,0,1,1,12,12A12,12,0,0,1,72,108Zm88,0a12,12,0,1,1,12,12A12,12,0,0,1,160,108Z"/></symbol><symbol id="i-translate" viewBox="0 0 256 256"><path d="M247.15,212.42l-56-112a8,8,0,0,0-14.31,0l-21.71,43.43A88,88,0,0,1,108,126.93,103.65,103.65,0,0,0,135.69,64H160a8,8,0,0,0,0-16H104V32a8,8,0,0,0-16,0V48H32a8,8,0,0,0,0,16h87.63A87.76,87.76,0,0,1,96,116.35a87.74,87.74,0,0,1-19-31,8,8,0,1,0-15.08,5.34A103.63,103.63,0,0,0,84,127a87.55,87.55,0,0,1-52,17,8,8,0,0,0,0,16,103.46,103.46,0,0,0,64-22.08,104.18,104.18,0,0,0,51.44,21.31l-26.6,53.19a8,8,0,0,0,14.31,7.16L148.94,192h70.11l13.79,27.58A8,8,0,0,0,240,224a8,8,0,0,0,7.15-11.58ZM156.94,176,184,121.89,211.05,176Z"/></symbol><symbol id="i-user-focus" viewBox="0 0 256 256"><path d="M224,40V76a8,8,0,0,1-16,0V48H180a8,8,0,0,1,0-16h36A8,8,0,0,1,224,40Zm-8,132a8,8,0,0,0-8,8v28H180a8,8,0,0,0,0,16h36a8,8,0,0,0,8-8V180A8,8,0,0,0,216,172ZM76,208H48V180a8,8,0,0,0-16,0v36a8,8,0,0,0,8,8H76a8,8,0,0,0,0-16ZM40,84a8,8,0,0,0,8-8V48H76a8,8,0,0,0,0-16H40a8,8,0,0,0-8,8V76A8,8,0,0,0,40,84Zm136,92a8,8,0,0,1-6.41-3.19,52,52,0,0,0-83.2,0,8,8,0,1,1-12.8-9.62A67.94,67.94,0,0,1,101,141.51a40,40,0,1,1,53.94,0,67.94,67.94,0,0,1,27.43,21.68A8,8,0,0,1,176,176Zm-48-40a24,24,0,1,0-24-24A24,24,0,0,0,128,136Z"/></symbol><symbol id="i-whatsapp-logo" viewBox="0 0 256 256"><path d="M187.58,144.84l-32-16a8,8,0,0,0-8,.5l-14.69,9.8a40.55,40.55,0,0,1-16-16l9.8-14.69a8,8,0,0,0,.5-8l-16-32A8,8,0,0,0,104,64a40,40,0,0,0-40,40,88.1,88.1,0,0,0,88,88,40,40,0,0,0,40-40A8,8,0,0,0,187.58,144.84ZM152,176a72.08,72.08,0,0,1-72-72A24,24,0,0,1,99.29,80.46l11.48,23L101,118a8,8,0,0,0-.73,7.51,56.47,56.47,0,0,0,30.15,30.15A8,8,0,0,0,138,155l14.61-9.74,23,11.48A24,24,0,0,1,152,176ZM128,24A104,104,0,0,0,36.18,176.88L24.83,210.93a16,16,0,0,0,20.24,20.24l34.05-11.35A104,104,0,1,0,128,24Zm0,192a87.87,87.87,0,0,1-44.06-11.81,8,8,0,0,0-6.54-.67L40,216,52.47,178.6a8,8,0,0,0-.66-6.54A88,88,0,1,1,128,216Z"/></symbol><symbol id="i-x" viewBox="0 0 256 256"><path d="M205.66,194.34a8,8,0,0,1-11.32,11.32L128,139.31,61.66,205.66a8,8,0,0,1-11.32-11.32L116.69,128,50.34,61.66A8,8,0,0,1,61.66,50.34L128,116.69l66.34-66.35a8,8,0,0,1,11.32,11.32L139.31,128Z"/></symbol></svg>